<svg xmlns="http://www.w3.org/2000/svg" width="32" height="32" viewBox="0 0 32 32">
  <defs>
    <linearGradient id="bgGradient" x1="0%" y1="0%" x2="100%" y2="100%">
      <stop offset="0%" style="stop-color:#10b981"/>
      <stop offset="100%" style="stop-color:#06b6d4"/>
    </linearGradient>
  </defs>
  <rect width="32" height="32" rx="6" fill="url(#bgGradient)"/>
  <path d="M24 17c0 5-3.5 7.5-7.66 8.95a1 1 0 0 1-.67-.01C11.5 24.5 8 22 8 17V10a1 1 0 0 1 1-1c2 0 4.5-1.2 6.24-2.72a1.17 1.17 0 0 1 1.52 0C18.51 7.81 21 9 23 9a1 1 0 0 1 1 1z" fill="none" stroke="white" stroke-width="2" stroke-linecap="round" stroke-linejoin="round" transform="translate(0, 2)"/>
</svg>
